<?xml version="1.0" encoding="UTF-8"?>
<svg id="Layer_1" xmlns="http://www.w3.org/2000/svg" version="1.1" viewBox="0 0 1159 289">
  <!-- Generator: Adobe Illustrator 29.8.6, SVG Export Plug-In . SVG Version: 2.1.1 Build 1)  -->
  <defs>
    <style>
      .st0 {
        fill: #03e55e;
      }
    </style>
  </defs>
  <g>
    <path class="st0" d="M258.19,259h-46.08v-55.29l-30.72-31.08h-50.66l-39.54-39.58v125.95h-39.87V109.5l39.87-39.58v63.14h120.92v-26.17l-36.93-36.97h-83.99V30h100.33l60.46,60.52v42.53l-27.13,27.15,33.33,33.37v65.43Z"/>
    <path class="st0" d="M336.29,219.09h160.79v39.91h-121.25l-39.54-39.91ZM444.79,172.63h-108.5v46.45h-39.87V90.52l60.46-60.52h140.2v39.91h-123.86l-36.93,36.97v26.17h108.5v39.58Z"/>
    <path class="st0" d="M731.35,219.09h-39.87v-112.21l-36.93-36.97h-83.99V30h100.33l60.46,60.52v128.57ZM570.56,69.91v149.18h120.92l-39.54,39.91h-121.25V109.5l39.87-39.58Z"/>
    <path class="st0" d="M845.82,69.91l-36.93,36.97v24.86h99.35l60.46,60.52v26.83h-46.08l-39.55,39.91h-114.06v-39.91h153.61v-16.68l-30.72-30.75h-83.01l-39.87-39.91v-41.22l60.46-60.52h140.2v39.91h-123.87Z"/>
  </g>
  <g>
    <path class="st0" d="M1000.77,30v2.98h-7.66v25.11h-3.67v-25.11h-7.7v-2.98h19.02Z"/>
    <path class="st0" d="M1033.78,30.2v27.89h-3.67v-20.8l-9.27,20.8h-2.58l-9.31-20.84v20.84h-3.67v-27.89h3.95l10.32,23.06,10.32-23.06h3.91Z"/>
  </g>
</svg>