<svg width="1159" height="289" viewBox="0 0 1159 289" fill="none" xmlns="http://www.w3.org/2000/svg">
<path d="M261.077 289H202.922V219.227L164.153 180.006H100.224L50.3182 130.05V289H0V100.324L50.3182 50.3686V130.05H202.922V97.0214L156.316 50.3686H50.3182V0H176.938L253.241 76.3786V130.05L219.008 164.317L261.077 206.429V289Z" fill="#03E55E"/>
<path d="M359.642 238.631H562.564V289H409.547L359.642 238.631ZM496.573 180.006H359.642V238.631H309.323V76.3786L385.625 0H562.564V50.3686H406.248L359.642 97.0214V130.05H496.573V180.006Z" fill="#03E55E"/>
<path d="M858.212 238.631H807.894V97.0214L761.288 50.3686H655.29V0H781.91L858.212 76.3786V238.631ZM655.29 50.3686V238.631H807.894L757.988 289H604.972V100.324L655.29 50.3686Z" fill="#03E55E"/>
<path d="M1002.68 50.3686L956.077 97.0214V128.399H1081.46L1157.76 204.777V238.631H1099.61L1049.7 289H905.759V238.631H1099.61V217.576L1060.84 178.767H956.077L905.759 128.399V76.3786L982.061 0H1159V50.3686H1002.68Z" fill="#03E55E"/>
</svg>
